<mxfile host="app.diagrams.net" modified="2022-05-19T04:46:06.330Z" agent="5.0 (Windows NT 10.0; Win64; x64) AppleWebKit/537.36 (KHTML, like Gecko) Chrome/101.0.4951.54 Safari/537.36 Edg/101.0.1210.39" etag="m3SDWgc4Dsau2S1xMqMW" version="17.5.0" type="github">
  <diagram id="prtHgNgQTEPvFCAcTncT" name="Page-1">
    <mxGraphModel dx="2310" dy="781" grid="1" gridSize="10" guides="1" tooltips="1" connect="1" arrows="1" fold="1" page="1" pageScale="1" pageWidth="827" pageHeight="1169" math="0" shadow="0">
      <root>
        <mxCell id="0" />
        <mxCell id="1" parent="0" />
        <mxCell id="dNxyNK7c78bLwvsdeMH5-11" value="" style="swimlane;html=1;startSize=20;horizontal=1;containerType=tree;glass=0;" parent="1" vertex="1">
          <mxGeometry x="44" y="90" width="740" height="290" as="geometry" />
        </mxCell>
        <mxCell id="MEE-5n64z5JgvB7CfafD-5" style="edgeStyle=orthogonalEdgeStyle;rounded=0;orthogonalLoop=1;jettySize=auto;html=1;entryX=0.5;entryY=0;entryDx=0;entryDy=0;" edge="1" parent="dNxyNK7c78bLwvsdeMH5-11" source="MEE-5n64z5JgvB7CfafD-4" target="MEE-5n64z5JgvB7CfafD-2">
          <mxGeometry relative="1" as="geometry" />
        </mxCell>
        <mxCell id="MEE-5n64z5JgvB7CfafD-7" style="edgeStyle=orthogonalEdgeStyle;rounded=0;orthogonalLoop=1;jettySize=auto;html=1;entryX=0.5;entryY=0;entryDx=0;entryDy=0;" edge="1" parent="dNxyNK7c78bLwvsdeMH5-11" source="MEE-5n64z5JgvB7CfafD-4" target="MEE-5n64z5JgvB7CfafD-1">
          <mxGeometry relative="1" as="geometry" />
        </mxCell>
        <mxCell id="MEE-5n64z5JgvB7CfafD-59" style="edgeStyle=orthogonalEdgeStyle;rounded=0;orthogonalLoop=1;jettySize=auto;html=1;entryX=0.5;entryY=0;entryDx=0;entryDy=0;" edge="1" parent="dNxyNK7c78bLwvsdeMH5-11" source="MEE-5n64z5JgvB7CfafD-4" target="MEE-5n64z5JgvB7CfafD-58">
          <mxGeometry relative="1" as="geometry" />
        </mxCell>
        <mxCell id="MEE-5n64z5JgvB7CfafD-4" value="user" style="rounded=0;whiteSpace=wrap;html=1;" vertex="1" parent="dNxyNK7c78bLwvsdeMH5-11">
          <mxGeometry x="280" y="40" width="120" height="60" as="geometry" />
        </mxCell>
        <mxCell id="MEE-5n64z5JgvB7CfafD-2" value="进入主页" style="rounded=0;whiteSpace=wrap;html=1;" vertex="1" parent="dNxyNK7c78bLwvsdeMH5-11">
          <mxGeometry x="280" y="160" width="120" height="60" as="geometry" />
        </mxCell>
        <mxCell id="MEE-5n64z5JgvB7CfafD-1" value="创建新的blog" style="rounded=0;whiteSpace=wrap;html=1;" vertex="1" parent="dNxyNK7c78bLwvsdeMH5-11">
          <mxGeometry x="520" y="160" width="120" height="60" as="geometry" />
        </mxCell>
        <mxCell id="MEE-5n64z5JgvB7CfafD-58" value="登录，注册" style="rounded=0;whiteSpace=wrap;html=1;" vertex="1" parent="dNxyNK7c78bLwvsdeMH5-11">
          <mxGeometry x="36" y="160" width="120" height="60" as="geometry" />
        </mxCell>
        <mxCell id="MEE-5n64z5JgvB7CfafD-8" value="ユースケース図" style="whiteSpace=wrap;html=1;" vertex="1" parent="1">
          <mxGeometry x="335" y="50" width="120" height="20" as="geometry" />
        </mxCell>
        <mxCell id="MEE-5n64z5JgvB7CfafD-18" value="アクティビティ" style="swimlane;whiteSpace=wrap" vertex="1" parent="1">
          <mxGeometry x="-40" y="410" width="830" height="590" as="geometry" />
        </mxCell>
        <mxCell id="MEE-5n64z5JgvB7CfafD-19" value="user" style="ellipse;shape=startState;fillColor=#000000;strokeColor=#ff0000;fontColor=#FFFFFF;" vertex="1" parent="MEE-5n64z5JgvB7CfafD-18">
          <mxGeometry x="304" y="50" width="70" height="30" as="geometry" />
        </mxCell>
        <mxCell id="MEE-5n64z5JgvB7CfafD-20" value="" style="edgeStyle=elbowEdgeStyle;elbow=horizontal;verticalAlign=bottom;endArrow=open;endSize=8;strokeColor=#FF0000;endFill=1;rounded=0" edge="1" parent="MEE-5n64z5JgvB7CfafD-18" source="MEE-5n64z5JgvB7CfafD-19">
          <mxGeometry x="40" y="20" as="geometry">
            <mxPoint x="340" y="120" as="targetPoint" />
            <Array as="points">
              <mxPoint x="339" y="100" />
            </Array>
          </mxGeometry>
        </mxCell>
        <mxCell id="MEE-5n64z5JgvB7CfafD-73" style="edgeStyle=orthogonalEdgeStyle;rounded=0;orthogonalLoop=1;jettySize=auto;html=1;entryX=0.395;entryY=0.034;entryDx=0;entryDy=0;entryPerimeter=0;strokeColor=#FF0000;exitX=-0.009;exitY=0.569;exitDx=0;exitDy=0;exitPerimeter=0;" edge="1" parent="MEE-5n64z5JgvB7CfafD-18" source="MEE-5n64z5JgvB7CfafD-21" target="MEE-5n64z5JgvB7CfafD-24">
          <mxGeometry relative="1" as="geometry">
            <mxPoint x="260" y="135" as="sourcePoint" />
            <Array as="points">
              <mxPoint x="237" y="139" />
            </Array>
          </mxGeometry>
        </mxCell>
        <mxCell id="MEE-5n64z5JgvB7CfafD-21" value="首页" style="" vertex="1" parent="MEE-5n64z5JgvB7CfafD-18">
          <mxGeometry x="270" y="110" width="124" height="50" as="geometry" />
        </mxCell>
        <mxCell id="MEE-5n64z5JgvB7CfafD-70" style="edgeStyle=orthogonalEdgeStyle;rounded=0;orthogonalLoop=1;jettySize=auto;html=1;entryX=0;entryY=0.5;entryDx=0;entryDy=0;strokeColor=#FF0000;" edge="1" parent="MEE-5n64z5JgvB7CfafD-18" target="MEE-5n64z5JgvB7CfafD-26">
          <mxGeometry relative="1" as="geometry">
            <mxPoint x="540" y="240" as="sourcePoint" />
          </mxGeometry>
        </mxCell>
        <mxCell id="MEE-5n64z5JgvB7CfafD-71" style="edgeStyle=orthogonalEdgeStyle;rounded=0;orthogonalLoop=1;jettySize=auto;html=1;entryX=-0.031;entryY=0.671;entryDx=0;entryDy=0;entryPerimeter=0;strokeColor=#FF0000;" edge="1" parent="MEE-5n64z5JgvB7CfafD-18" target="MEE-5n64z5JgvB7CfafD-61">
          <mxGeometry relative="1" as="geometry">
            <mxPoint x="530" y="260" as="sourcePoint" />
            <Array as="points">
              <mxPoint x="520" y="269" />
              <mxPoint x="530" y="269" />
              <mxPoint x="530" y="443" />
            </Array>
          </mxGeometry>
        </mxCell>
        <mxCell id="MEE-5n64z5JgvB7CfafD-22" value="登录" style="" vertex="1" parent="MEE-5n64z5JgvB7CfafD-18">
          <mxGeometry x="434" y="215" width="110" height="50" as="geometry" />
        </mxCell>
        <mxCell id="MEE-5n64z5JgvB7CfafD-24" value="文章" style="" vertex="1" parent="MEE-5n64z5JgvB7CfafD-18">
          <mxGeometry x="194" y="210" width="110" height="55" as="geometry" />
        </mxCell>
        <mxCell id="MEE-5n64z5JgvB7CfafD-68" style="edgeStyle=orthogonalEdgeStyle;rounded=0;orthogonalLoop=1;jettySize=auto;html=1;strokeColor=#FF0000;" edge="1" parent="MEE-5n64z5JgvB7CfafD-18" source="MEE-5n64z5JgvB7CfafD-26">
          <mxGeometry relative="1" as="geometry">
            <mxPoint x="400" y="140" as="targetPoint" />
            <Array as="points">
              <mxPoint x="685" y="140" />
            </Array>
          </mxGeometry>
        </mxCell>
        <mxCell id="MEE-5n64z5JgvB7CfafD-76" value="yes" style="edgeLabel;html=1;align=center;verticalAlign=middle;resizable=0;points=[];" vertex="1" connectable="0" parent="MEE-5n64z5JgvB7CfafD-68">
          <mxGeometry x="-0.8614" y="-3" relative="1" as="geometry">
            <mxPoint as="offset" />
          </mxGeometry>
        </mxCell>
        <mxCell id="MEE-5n64z5JgvB7CfafD-26" value="输入用户名密码" style="rhombus;fillColor=#ffffc0;strokeColor=#ff0000;" vertex="1" parent="MEE-5n64z5JgvB7CfafD-18">
          <mxGeometry x="600" y="220" width="170" height="40" as="geometry" />
        </mxCell>
        <mxCell id="MEE-5n64z5JgvB7CfafD-28" value="no" style="edgeStyle=elbowEdgeStyle;elbow=horizontal;align=left;verticalAlign=top;endArrow=open;endSize=8;strokeColor=#FF0000;endFill=1;rounded=0" edge="1" parent="MEE-5n64z5JgvB7CfafD-18" source="MEE-5n64z5JgvB7CfafD-26" target="MEE-5n64z5JgvB7CfafD-32">
          <mxGeometry x="-1" relative="1" as="geometry">
            <mxPoint x="190" y="305" as="targetPoint" />
          </mxGeometry>
        </mxCell>
        <mxCell id="MEE-5n64z5JgvB7CfafD-32" value="密码错误&#xa;返回登录界面" style="" vertex="1" parent="MEE-5n64z5JgvB7CfafD-18">
          <mxGeometry x="630" y="325" width="110" height="50" as="geometry" />
        </mxCell>
        <mxCell id="MEE-5n64z5JgvB7CfafD-33" value="编辑、新建blog" style="shape=note;whiteSpace=wrap;size=17;" vertex="1" parent="MEE-5n64z5JgvB7CfafD-18">
          <mxGeometry x="194" y="410" width="100" height="50" as="geometry" />
        </mxCell>
        <mxCell id="MEE-5n64z5JgvB7CfafD-34" value="" style="endArrow=none;strokeColor=#FF0000;endFill=0;rounded=0;dashed=1;exitX=0.447;exitY=1.094;exitDx=0;exitDy=0;exitPerimeter=0;" edge="1" parent="MEE-5n64z5JgvB7CfafD-18" source="MEE-5n64z5JgvB7CfafD-24" target="MEE-5n64z5JgvB7CfafD-33">
          <mxGeometry relative="1" as="geometry">
            <mxPoint x="230" y="310" as="sourcePoint" />
          </mxGeometry>
        </mxCell>
        <mxCell id="MEE-5n64z5JgvB7CfafD-61" value="注册" style="" vertex="1" parent="MEE-5n64z5JgvB7CfafD-18">
          <mxGeometry x="630" y="410" width="110" height="50" as="geometry" />
        </mxCell>
        <mxCell id="MEE-5n64z5JgvB7CfafD-30" value="" style="shape=line;strokeWidth=6;strokeColor=#ff0000;rotation=90" vertex="1" parent="MEE-5n64z5JgvB7CfafD-18">
          <mxGeometry x="409" y="140" width="50" height="15" as="geometry" />
        </mxCell>
        <mxCell id="MEE-5n64z5JgvB7CfafD-66" style="edgeStyle=orthogonalEdgeStyle;rounded=0;orthogonalLoop=1;jettySize=auto;html=1;exitX=0.25;exitY=0.5;exitDx=0;exitDy=0;exitPerimeter=0;entryX=0;entryY=0.5;entryDx=0;entryDy=0;entryPerimeter=0;" edge="1" parent="MEE-5n64z5JgvB7CfafD-18" source="MEE-5n64z5JgvB7CfafD-30" target="MEE-5n64z5JgvB7CfafD-30">
          <mxGeometry relative="1" as="geometry" />
        </mxCell>
        <mxCell id="MEE-5n64z5JgvB7CfafD-47" style="edgeStyle=orthogonalEdgeStyle;rounded=0;orthogonalLoop=1;jettySize=auto;html=1;dashed=1;startArrow=none;" edge="1" parent="1">
          <mxGeometry relative="1" as="geometry">
            <mxPoint x="630" y="320" as="targetPoint" />
            <mxPoint x="150" y="320" as="sourcePoint" />
            <Array as="points">
              <mxPoint x="150" y="350" />
              <mxPoint x="630" y="350" />
            </Array>
          </mxGeometry>
        </mxCell>
        <mxCell id="MEE-5n64z5JgvB7CfafD-48" value="&lt;span style=&quot;color: rgba(0 , 0 , 0 , 0) ; font-family: monospace ; font-size: 0px ; background-color: rgb(248 , 249 , 250)&quot;&gt;%3CmxGraphModel%3E%3Croot%3E%3CmxCell%20id%3D%220%22%2F%3E%3CmxCell%20id%3D%221%22%20parent%3D%220%22%2F%3E%3CmxCell%20id%3D%222%22%20value%3D%22%26lt%3Bspan%20style%3D%26quot%3Bcolor%3A%20rgb(77%20%2C%2077%20%2C%2077)%20%3B%20font-family%3A%20%2C%20%26amp%3B%2334%3Bsf%20ui%20text%26amp%3B%2334%3B%20%2C%20%26amp%3B%2334%3Barial%26amp%3B%2334%3B%20%2C%20%26amp%3B%2334%3Bpingfang%20sc%26amp%3B%2334%3B%20%2C%20%26amp%3B%2334%3Bhiragino%20sans%20gb%26amp%3B%2334%3B%20%2C%20%26amp%3B%2334%3Bmicrosoft%20yahei%26amp%3B%2334%3B%20%2C%20%26amp%3B%2334%3Bwenquanyi%20micro%20hei%26amp%3B%2334%3B%20%2C%20sans-serif%20%2C%20%26amp%3B%2334%3Bsimhei%26amp%3B%2334%3B%20%2C%20%26amp%3B%2334%3Bsimsun%26amp%3B%2334%3B%20%3B%20font-size%3A%2016px%20%3B%20background-color%3A%20rgb(255%20%2C%20255%20%2C%20255)%26quot%3B%26gt%3B%26amp%3Blt%3B%26amp%3Blt%3Binclude%26amp%3Bgt%3B%26amp%3Bgt%3B%26lt%3B%2Fspan%26gt%3B%22%20style%3D%22text%3Bhtml%3D1%3Balign%3Dcenter%3BverticalAlign%3Dmiddle%3Bresizable%3D0%3Bpoints%3D%5B%5D%3Bautosize%3D1%3BstrokeColor%3Dnone%3BfillColor%3Dnone%3B%22%20vertex%3D%221%22%20parent%3D%221%22%3E%3CmxGeometry%20x%3D%22100%22%20y%3D%22200%22%20width%3D%22100%22%20height%3D%2220%22%20as%3D%22geometry%22%2F%3E%3C%2FmxCell%3E%3C%2Froot%3E%3C%2FmxGraphModel%3E&lt;/span&gt;" style="edgeLabel;html=1;align=center;verticalAlign=middle;resizable=0;points=[];" vertex="1" connectable="0" parent="MEE-5n64z5JgvB7CfafD-47">
          <mxGeometry x="0.3189" y="-2" relative="1" as="geometry">
            <mxPoint x="-1" as="offset" />
          </mxGeometry>
        </mxCell>
        <mxCell id="MEE-5n64z5JgvB7CfafD-54" value="&lt;span style=&quot;color: rgb(77 , 77 , 77) ; font-family: , &amp;#34;sf ui text&amp;#34; , &amp;#34;arial&amp;#34; , &amp;#34;pingfang sc&amp;#34; , &amp;#34;hiragino sans gb&amp;#34; , &amp;#34;microsoft yahei&amp;#34; , &amp;#34;wenquanyi micro hei&amp;#34; , sans-serif , &amp;#34;simhei&amp;#34; , &amp;#34;simsun&amp;#34; ; font-size: 16px&quot;&gt;&amp;lt;&amp;lt;extend&amp;gt;&amp;gt;&lt;/span&gt;" style="edgeLabel;html=1;align=center;verticalAlign=middle;resizable=0;points=[];" vertex="1" connectable="0" parent="MEE-5n64z5JgvB7CfafD-47">
          <mxGeometry x="0.0632" y="4" relative="1" as="geometry">
            <mxPoint x="-1" as="offset" />
          </mxGeometry>
        </mxCell>
        <mxCell id="MEE-5n64z5JgvB7CfafD-69" style="edgeStyle=orthogonalEdgeStyle;rounded=0;orthogonalLoop=1;jettySize=auto;html=1;strokeColor=#FF0000;" edge="1" parent="1">
          <mxGeometry relative="1" as="geometry">
            <mxPoint x="460" y="670" as="targetPoint" />
            <mxPoint x="610" y="750" as="sourcePoint" />
          </mxGeometry>
        </mxCell>
      </root>
    </mxGraphModel>
  </diagram>
</mxfile>
